/* XPM */
static char *_16ef2c2b45f446e949ce40916b15570mmHozs2EJAvbKUPd[] = {
/* columns rows colors chars-per-pixel */
"20 20 93 2 ",
"   c #007EE0",
".  c #007FE1",
"X  c #0083E2",
"o  c #0086E2",
"O  c #0086E3",
"+  c #008AE3",
"@  c #018BE3",
"#  c #038BE3",
"$  c #018BE4",
"%  c #018EE4",
"&  c #038FE4",
"*  c #048FE4",
"=  c #048FE5",
"-  c #0A89E3",
";  c #0B8FE4",
":  c #0C8FE5",
">  c #0990E5",
",  c #0D92E5",
"<  c #1091E5",
"1  c #1496E6",
"2  c #1B96E6",
"3  c #1E97E6",
"4  c #1998E7",
"5  c #1E9AE7",
"6  c #1E9BE7",
"7  c #2397E6",
"8  c #209BE7",
"9  c #299CE7",
"0  c #219CE8",
"q  c #279EE8",
"w  c #279FE8",
"e  c #289FE8",
"r  c #29A0E8",
"t  c #2CA0E8",
"y  c #2FA2E9",
"u  c #2FA3E9",
"i  c #32A3E9",
"p  c #33A4E9",
"a  c #37A6EA",
"s  c #3DA6EA",
"d  c #3CA8EA",
"f  c #40AAEB",
"g  c #44A8EB",
"h  c #44ACEB",
"j  c #45ACEB",
"k  c #4AADEB",
"l  c #4DADEC",
"z  c #4EB0EC",
"x  c #51B1ED",
"c  c #53B3ED",
"v  c #54B2ED",
"b  c #57B5ED",
"n  c #58B4ED",
"m  c #5EB5EE",
"M  c #60B8EE",
"N  c #63BAEF",
"B  c #64B8EE",
"V  c #6ABCEF",
"C  c #6BBDEF",
"Z  c #6EBDEF",
"A  c #70BEEF",
"S  c #6EBFF0",
"D  c #76C2F0",
"F  c #81C5F1",
"G  c #84C6F2",
"H  c #83C8F2",
"J  c #85C8F2",
"K  c #8ACBF3",
"L  c #8BCBF3",
"P  c #8ECDF3",
"I  c #91CDF3",
"U  c #90CEF3",
"Y  c #99D1F4",
"T  c #ABDAF6",
"R  c #B3DDF7",
"E  c #B9DFF7",
"W  c #BBE0F8",
"Q  c #BFE2F8",
"!  c #C1E2F8",
"~  c #C2E4F9",
"^  c #D0E9FA",
"/  c #D4ECFB",
"(  c #DCEFFB",
")  c #DFF1FC",
"_  c #E3F2FC",
"`  c #E3F3FC",
"'  c #E5F3FC",
"]  c #ECF7FD",
"[  c #EEF7FD",
"{  c #F7FBFE",
"}  c #F9FCFE",
"|  c #FBFDFF",
" . c white",
/* pixels */
"C 3 8 6 6 6 6 6 0 0 8 8 8 6 6 6 6 8 6 C ",
"r o + + + + & + o X o o o $ $ $ + + o 9 ",
"i + & & + * o ; d M n x y + $ & & & + i ",
"i + & & + + S (  . .j 7 m D 9 o & + + i ",
"i + & & ; R  . .! G G B 6 : A s o * $ i ",
"i + & $ T  ./ s o   `  . .F X A e + + i ",
"y + o v  .( 3 X S E M G ] S o , S + $ i ",
"i + + !  .x   I  . .q   3 & * o l i X i ",
"i o 2 | ] $ e  .}  .a + X o + + r z o p ",
"i o y  .Q   C  .}  .i , M n 3 + 2 m o i ",
"i o y  .Q X b  .{  .9 y  . .G X 6 m o p ",
"i o 1 } ' + < )  . .a - C  .J   i x X i ",
"i + + R  .x   y !  .y   C  .K   m e o i ",
"y $ + f  .` y   + i Y ^  . .G > S $ + i ",
"i + = o P  .[ Z 2 o ' { I [ P M 6 + + y ",
"i + = + + I  . .{ ^ x $ X l P e + & + i ",
"y + $ & & o l E {  .z s A m < + & & + i ",
"i + & & & & $ $ 6 s f a 1 + $ * $ & + i ",
"9 o + + + + + o o X X X o + + + + + o r ",
"L g g j g j g g j k j j g j g j g g g L "
};
