/* XPM */
static char *da1adfc6d7544084ec25461ac5220ccclQRHHchxew4fk1pD[] = {
/* columns rows colors chars-per-pixel */
"48 48 88 1 ",
"  c #007EE0",
". c #0086E3",
"X c #018DE4",
"o c #0A8EE4",
"O c #118FE4",
"+ c #0690E5",
"@ c #0C92E5",
"# c #1395E6",
"$ c #1A95E6",
"% c #1D99E7",
"& c #219BE7",
"* c #259DE8",
"= c #299EE8",
"- c #349FE8",
"; c #2CA0E8",
": c #34A4E9",
"> c #3CA7EA",
", c #3DA8EA",
"< c #44ABEB",
"1 c #4BADEB",
"2 c #54B3ED",
"3 c #5BB5ED",
"4 c #5FB8EE",
"5 c #61B6EE",
"6 c #64B9EE",
"7 c #6BBDEF",
"8 c #6EBEF0",
"9 c #73BFF0",
"0 c #74C1F0",
"q c #7BC4F1",
"w c #83C6F2",
"e c #85C9F2",
"r c #88CAF2",
"t c #92CEF3",
"y c #96D0F4",
"u c #9CD3F5",
"i c #A3D6F5",
"p c #A8D7F6",
"a c #A7D8F5",
"s c #A7D8F6",
"d c #A8D8F6",
"f c #A9D9F6",
"g c #ACDAF6",
"h c #B0DBF6",
"j c #B3DDF7",
"k c #B6DEF7",
"l c #BADFF7",
"z c #B8DFF8",
"x c #B9DFF8",
"c c #BAE0F7",
"v c #BAE0F8",
"b c #BFE2F8",
"n c #BFE3F8",
"m c #C0E3F8",
"M c #C2E4F8",
"N c #C2E4F9",
"B c #C6E5F9",
"V c #C7E6F9",
"C c #C9E7F9",
"Z c #CAE8F9",
"A c #CFE9FA",
"S c #CFEAFA",
"D c #D1EAFA",
"F c #D2EBFA",
"G c #D4EBFA",
"H c #D3ECFA",
"J c #D4ECFA",
"K c #D8EEFB",
"L c #DAEFFB",
"P c #DBEFFB",
"I c #DDEFFB",
"U c #DDF0FB",
"Y c #DFF1FB",
"T c #E1F2FC",
"R c #E7F5FC",
"E c #E9F5FD",
"W c #EBF6FD",
"Q c #EEF7FD",
"! c #EFF8FD",
"~ c #F0F8FD",
"^ c #F2F9FD",
"/ c #F7FBFE",
"( c #F6FCFE",
") c #F9FCFE",
"_ c #F9FCFF",
"` c #FAFCFE",
"' c #FFFEFF",
"] c white",
/* pixels */
"]s22222222222222222222222222222222222222222223g]",
"kX.X.................X.........................v",
"w.++XXXo+XX+++X+X++++XXXXX+X+X++X+X++X+X+X++X+Xe",
"r.XXXXXXXXXX+XXXXXXXXXXXXXXXXXX+XXXX+XXXXXX+XX.r",
"r.+XXXXXXXXXXXXXXXXX++XXXXX+++XXXXXXXXXXXXXXX+.r",
"r.XXXXXXXXXXXXXXX++....X.XX...XXXXXXXXXXXXXXXX.r",
"r.XXXXXXXXXXXXXXX..=6yjNccvy6%...XXXXXXXXXXXX+.r",
"r.+XXXXXX.XXXXX.#8B_]]]]r-4rNTN4XXX+XXXXXXXXXX.r",
"r.++XXXXXXXXXXX7Y]]]'___7....$9GD1..+XXXXXXXX+.r",
"r.XXX+XXXXX+.&b]]]__/']]0 XXXX.X5IpoX+.XXXXXX+.r",
"r.+XXXXXXX+.<R]_]_]]]/Llt51=X.XX.#gG$XXXXXXXX+.r",
"r.XXXXXXX+.<_]_]]]]l5=o.t]]_Jr-.X..qR$XXXXXXXX.r",
"r.XXXXXXX.:~]_]]]b>X.XX.t__]]]_t@.+.0Y@.+XXXXX.r",
"r.+XXXXXX@L]]]]]qX.XXXX.r]__]_]]D%X+.yx.XXXXXX.r",
"r.+XXXX+.t]_]_]4.XXX.X@$u]]]]_]]H$X+..S4.+XXXX.r",
"r.+XXX+.:]]]_]7.oX.X1gT~0-3a/']W*.XXo.:I@XXXXX.r",
"r.XXXXX.a]/]]a.+XXoi]]]]6...=k]2.XXXXX.h0.oXX+Xr",
"rXXXXoX&/]]]E%XXXob]_]_]7.oX.X<.XXXXXX.,DXXXXX.r",
"r.XXXX.7]//]r.+X.t]/]]_]7.oXXX.oXXXXXXXXC<.XXX.r",
"r.XXXXXk]]]`;.+.:']]]]_]7.XXXXoXXXXXXX+.tr.XXX.r",
"r.XXXXoT]_]CXXX.u]/]]]]]7.+XXXXXXXXXXXo.3k.XXX.r",
"r.XXXX=/]/]t.+X+Y]'']]_]0.+XXXXXXXXXXXX.:SXXXX.r",
"r.XXXX:]]]]7.+X;_''']]_]0.+X++X+XXXXXXXX%D@XXXXr",
"rXoXX.>]]_]3.+.:]''']]_]9.+.eUSSSb>.XXXX#S#XXo.r",
"r.+XX.>]]_]3.+.;/]]]]]_]0.+.a]]]]]BXXXXX$D#XX+.r",
"r.XXXX:]]]]6.+X@T]_]]]_]0.+.a]_]_]SXXXXX;D@XX+.r",
"r.XXXX%^]_]r.+X.u]]]]]]]0.o.i~'']]DXXXX.,B.XX+.r",
"r.XXXXXH]_]M.+X.=/_]]]/'0.+X#$r'_]HXXXX.0s.+XX.r",
"r.XXX+.u]/]/=.XX.7]]_'']q.XXX.3]_]JXXXX.g0.+XX.r",
"rXXXXX.2]]_]e.XXXX9]]]/_q.++o.7]_]LXX+.#U%XXX+.r",
"r.XXXXX@T]_]^%XoXX.>b]]]q.X..5E]_]L+XX.8v.XXXX.r",
"r.XXXXX.q]_]]lXXXXX..:qM0O$3b'']]]J@XXXY<.XXX+.r",
"r.XXXXXX@R]]_]y.XXXXXX..iW~]]]_]]]Y+X.0b.XXXXX.r",
"r.XXX+X+.2]_]]]io.X@XXXos]]__]]]_]Y@.=W=XXXXXXXr",
"r.+XXXXXX.u]_]]]G1X.XXX.a__]]Qw/]]TXoI7.XXXXXX.r",
"rXXXXXXXXXob]_]_]]m6&.X a]]Wt$$]]]T@Zt.+XXXXXX.r",
"r.XXXXXXXXX#M]_]]]]]~Cuqtw1%..@:>=<Gi.XXXXXXXXXr",
"r.+XXXXXXXX.oi]]_]__]]]]q .o+oX. 1Yw.XXXXXXXXX.r",
"r.XXXXXXXXX+.X7R]]_]]_(]9ooXX..>cL1.XXXXXXXXXX.r",
"r.XXXXXXXXXXXX.$tQ]]]]__6 ..&7mLqo.XXXXXXXXXXX.r",
"r.XXXXXXXXXX+X+..%7lW]]]i9ubDj6@.XXXXXXXXXXXXX.r",
"r.+XXXXXXXXXXXX+XX.X#>36906>@..XXXXXXXXXXXXXX+.r",
"r.XXXXXXXXXXXXXXXX++X......X.++XXX+XXXXXXXXXX+.r",
"r.XXXXXXXXXXXXXXXXXXXXXoXXX+XXXXXXXXXXXXXXXXX+.r",
"r.+XXXXXXXXXXXXXXXXXXXXXXXXXXXXXXXXXXXXXXXXXXX.r",
"r.+XXXXXX+X++XX+XXXXXXXXXX+XXXXX+X+XXXXX+X++X+.r",
"Y=.XXXXX.XX.X..XX.XXXXX.XXXXX.XXX..XX.XXXXX...=Y",
"]!vvvxxvvvvcccccxklxxlxllkllxzlvvvvvxllxxkvvvvQ]"
};
