/* XPM */
static char *_637d2481e8646bcd236b45bed8918f4aEB1hXcOX5gSbnrc[] = {
/* columns rows colors chars-per-pixel */
"32 32 51 1 ",
"  c #007BDF",
". c #0086E2",
"X c #018DE4",
"o c #098DE4",
"O c #0790E5",
"+ c #0B91E5",
"@ c #1394E6",
"# c #1995E6",
"$ c #1D99E7",
"% c #239AE7",
"& c #289AE7",
"* c #259DE8",
"= c #359FE9",
"- c #2BA0E8",
"; c #34A4EA",
": c #38A5EA",
"> c #3FA9EB",
", c #44ABEB",
"< c #4BAEEC",
"1 c #4EB0EC",
"2 c #54B3ED",
"3 c #5EB7EE",
"4 c #60B6EE",
"5 c #65BAEF",
"6 c #6CBCEF",
"7 c #70BDEF",
"8 c #6FBEF0",
"9 c #76C2F1",
"0 c #7CC4F1",
"q c #84C7F2",
"w c #85C8F2",
"e c #8CCCF3",
"r c #92CEF3",
"t c #96D0F4",
"y c #9BD3F4",
"u c #A3D5F5",
"i c #A6D8F6",
"p c #ABD9F6",
"a c #B5DEF7",
"s c #B8DFF7",
"d c #BBE1F8",
"f c #C6E5F9",
"g c #CDE8FA",
"h c #D3EBFA",
"j c #DBEFFB",
"k c #DEF0FB",
"l c #E2F2FC",
"z c #EBF6FD",
"x c #EFF8FD",
"c c #F4FAFE",
"v c #FEFFFF",
/* pixels */
"f,;;;;;;;;;;;;;;;;;;;;;;;;;;::>f",
"2.XX.XX...X..X..X..XX..XX.X..X.2",
"2.oXXXXXXOOXOOOOXOOOOXOXXOOXXO.2",
"2.XXXXXXXXOX...OOO...OXXXXXXXo.2",
"2.OXXXXXOX.O,edhyty9;..oXXOXXX.2",
"2XXXOXXO..3hvvvv<X-4uy;.OXXXXO.2",
"2.XXXXOX@avvvvvv2.. .,p7.XXXXO.2",
"2.OXXX.$jvvvcu3=aha6# .ew.OXXO.2",
"2.XXXX+hvvvy%...svvvl5o.w9.OXX.2",
"2XXXO.yvcv6.X.O@avvvvc@X.y:.OX.2",
"2.XO.:vvv0.o.6gz3=wxv,.O.%y.OO.2",
"2XXO.ivvf.oXivvv,..-4.XXO.e>.O.2",
"2.oX@zvv<..0vvvv<.o..OXXO.>w.O.2",
"2.O.,vvlOX@cvvvv<.OOOoOXOX+tXO.2",
"2.o.8vvp..2vvvvv1.X....XXXXt@X.2",
"2XO.0vvr..9vcvvv1.#trt6XXO.r$XX2",
"2.O.9vvr..4vvvvv2.&vvvv:.O.r$X.2",
"2.O.6vvi..-vcvvv1.*zvvv:.XOy+O.2",
"2.O.:vvkOO.uvvvv2.+#pvv,.X$tXO.2",
"2.XXolvv,.ooavvv2.X tvv,..29.OX2",
"2.XO.evvg.XX.9fv<.@9cvv,..y-.O.2",
"2XXX.$cvvt.XO.X-tplvvvv<.<e.XX.2",
"2.OXO.9vvvu@..o.fvvvzvv,oa#XXO.2",
"2XXXX..uvcvk9*..fvk66vc<y<.OXO.2",
"2.XXXXXXpvvvvvgp0,@.o#<d1.OXXO.2",
"2.XXXOOX.0cvvvvv, ..@6i:..XXXO.2",
"2XXXXXXXX.-ylvvv4&1qi9OXOXXXXO.2",
"2.XXXOXXXO..@10tq06>o.XOXXXXXO.2",
"2.XXXXXXXXOXX.......XXXXXOXXXO.2",
"2.OOXOXOXOXOXOO+oOOOOXXXXXXOOX.1",
"5.X...X..X..........X..........5",
"zq9999999999999999999999999909qz"
};
