/* XPM */
static char *result[] = {
/* columns rows colors chars-per-pixel */
"64 64 52 1 ",
"  c #007FE0",
". c #0086E2",
"X c #018DE4",
"o c #098FE5",
"O c #0690E4",
"+ c #0C92E5",
"@ c #1496E6",
"# c #1996E6",
"$ c #1B99E7",
"% c #219BE7",
"& c #249DE8",
"* c #2A9FE8",
"= c #2DA1E8",
"- c #33A3E9",
"; c #3AA7EA",
": c #3DA8EA",
"> c #42ABEB",
", c #4AAEEC",
"< c #51ADEC",
"1 c #4EB0EC",
"2 c #54B2ED",
"3 c #5CB6EE",
"4 c #60B7EE",
"5 c #62B9EE",
"6 c #6BBDEF",
"7 c #6EBFF0",
"8 c #71BFF0",
"9 c #77C2F1",
"0 c #7BC4F1",
"q c #82C7F2",
"w c #85C9F2",
"e c #8BCBF3",
"r c #92CEF4",
"t c #96D0F4",
"y c #9CD2F4",
"u c #A3D6F5",
"i c #ABD9F6",
"p c #B3DDF7",
"a c #B7DFF8",
"s c #B8DFF8",
"d c #B9E0F8",
"f c #C4E5F9",
"g c #C9E7F9",
"h c #CDE9FA",
"j c #D3ECFA",
"k c #D9EEFB",
"l c #DEF0FC",
"z c #E4F3FC",
"x c #EDF7FD",
"c c #EEF8FD",
"v c #F4FAFE",
"b c #FEFFFF",
/* pixels */
"bby9999999909999999999099999999990999999999999999999999990009ubb",
"b3..X......X.....X.....X.....X...........X......X.....X.......3v",
"gXXXXOOXXXXXXXXoOXXOXXXXXXXoOXXXXXoXXXX+XXOXXXoXXXXoXOOXXXXXOXXg",
"aXXXXXXXXXXXXXXXXXXXXXXXXXXXXXXXXXXXXXXXXXXXXXXXXXXXXXXXXXXXXX.a",
"aXXXXXXXXXOXXXXXXXXXXXXXXXXXXXXXXXXXXXXXXXXOXXXXXXXXXXXXXXXXXXXd",
"a.XXXXXXXXXXXXXXXXXXXXXXXXXXXXXXXXXXXXXXXXXXXXXXXXXXXXXXXXXXXXXd",
"sXXXXXXXXXXXXXXXXXXXXXXXXXXXXXXXXXXXXXOXXXXXXXXXXXXXXXXXXXXXXXXs",
"dXXXXXXXXXXXXXXXXXXOXXXXOXXX..X..X...XXXXOXXXXXXXXXXOXXXXXXXXXXs",
"dXOXXXXXXXXXXXXXXXXXXOXX.X@;6ripsfsu9;@..XXXXXXXXXXXXXXXXXXXXXXd",
"dXXXXXXXXXXXXXXXXXXXXX.@3izbbbbbg0ufxbvp3@.XoXXXXXXXXXXXXXXXXOXd",
"dXXXXXXXXXOXXXXXXXXX.$wzbbbbbbvbe ..+-8hbvw#.XXXXXXXXOXXXXXXXXXs",
"dXXXXXXXXXXXXXXOXo.X8zbbbbbbbbbbyXoXX..X*rvv8XXXXXXXXXXXXXXXXXXs",
"dXXXXXXXXXXXXXXXX.-fbbbbbbbbbbvby.XXX+oX..#ebh*.XXXXXOXXXXXXXXXs",
"dXXXXXXXXXXXXXXO.3vbbbbbbbbbbbbbu.X...XXoXX.*fb<XXXXXXXXXXXXXXXs",
"sXXXXXXXXXXXXXXX9bbbbbbbbbbvhy8<ejfiw1$X.XXo.Xeb9.OXXXXXXXXXXX.s",
"sXXXXXXXXXXXXX.0bbbbbbbbbj9=o.. 6bbbbbzi,XXXXX.5b0.XXXXXXXXXXXXd",
"sXXXXXXXXXXXO.4bbbbbbbbl4+.XXXoX7bvbbbbbba*.XXX.3b3.XXXXXXXXXXXd",
"s.XXXXXXXXXXX;vbbbbbbbt@.XXXXXX.8bbbbbbbbbv4XXXO.7b;.XXXXXXXXOXd",
"dXXXXXXXXXXX+kbbbbbbb5.XOXXXXXX.6bbbbbbbbbbb>XXXo.uzoXXXXXXXXXXs",
"dXXXXXXXXXX.ebbbbbbb2.XXXXX..X$%qbbbbbbbbbbioXXXXX+zr.XXXXXOXXXs",
"dXXXXXXXXXX=vbbbbbb4.XXXXX.*qgzvt*2qfbbbvbj+XXXXXX.2b*XXXXXXXXXa",
"dXXXXXXXXX.ibbbbbbr.XXXXXoevbbbbe...X>dbbv-.OXXXXXX.hi.XXXXXXXXa",
"dXXXXXXXXX*vbbbbbjoXXXXX$fbbbbvbrXXoX.X7v4.XXXXXXXXX,b&XXXXXXX.a",
"dXXXXXXXX.wbbbbbb<.XXXX#hbbbbbbbe.XXXXX.&XXXXXXXXXXXXle.OXXXXXXd",
"dXXXXXXXXOhbbbbbgXXXXXXibbbbbbbbe.XXXXXOXXXXXXXXXXXO.wzXXXXXXXXd",
"dXXXXXXXX-bbbbbb3.XXX.<bbbbbbbbbr.XXXXXXXXXXXXXXXXXX.-v-XXXXXOXd",
"sXXXXXXO.5bbbbbz@XXXXXgbbbbbbbbbr.XXXXXXXXXXXXXXXXXXXXz6.XXXXXXa",
"sXXXXXXX.ybbbbbpXXXOX:bbbbbbbbvbr.XXXXXXXXXXXXXXXXXXX.ai.XXXXXXa",
"sXXXXXXXXfbbbbb0.XXo.wbbbbbbbbbbr.OXXXOXXXXXXXXXXOXXO.ejXXXXXXXa",
"s.XXXXXXOkbbbbb1XXXX.abbbbbbbbbbtXXXXX.X.XXXXXXXXXXXX.9zXXXXXXXa",
"sXXXXXXX+zbbbbb-.XXXXjbbbbbbbbbbt.XXX+:--===&XXXXXXXO.3x+XXXXX.d",
"dXXXXXXX+zbbbbb=XXXX+kbbbbbbbbbby.XXX;bbbbvbvu+XXXXXX.2xoXXXXXXd",
"aXXXXXXX+zbbbbb*XOXXXhbbbbbbbbbbt.XXX;bbbbbbbb3.XXXXX.3vOXXXXXXa",
"dXXXXXXXOlbbbbb-XXXXXibbbbbbbbbby.X+.>bbbbbbbb9.OXXXX.6xXXXXXXXa",
"dXOXXXXXXjbbbbb,.XXO.8bbbbbbbbbby.XXX>bbbbbbbb8.OXXXo.qkXXXXXXXa",
"aXXXXXXOXpbbbbb6.XX.X%vbbbbbbbbby.XX.:xxbbbbbb9.OXXXX.ufXXXXXXXs",
"a.XXXXXX.qbbbbbuXXXXO.rbbbbbbbbbu.XXXX$#0bbbbb0.XXXXXXje.OXXXXXa",
"aXXXXXXO.1bbbbbz+.XXXX#lbbbbbbbbyXXXXXX.-bbbbb0.OXXXX$b,.XXXXXXs",
"sXXXXXXXX#zbbbbb2.OXXX.-xbbbbbbbu.oXXXXo;bbbbb0.OXXX.3v@XXXXXX.s",
"sXXXXXXXXXibbbbbfXOXXXO.-kbbbbbbu.XXXXX >bbbbbq.XXXO.ddXXXXXXXXd",
"dXXXXXXXO.2bbbbbb2.XXXXXX@tvbbbbu.XoX..,kbbbbbw.OXX.&b2.OXXXXXXd",
"sXXXXXXXXXokbbbbbz@XXXXXXX.*whvbu.X.X*ybbbbbbbe.XXX.rzXXXXXXXOXd",
"s.XXXXXOXX.6bbbbbbpXXXXXXXXX.X=4e3<8pbbbbbbbvbe.XOX#b5.XXXXXXXXa",
"sXXXXXXXXXXXhbbbbbbyXXOXXXXXXX..ebbbbbbbbbbbbbe.OX.pkXXXXXXXXXXa",
"aXOXXXXXXXXX;bbbbbbbio.X.XXXXXooevvbbbbbbbbbbbr.+.2b;XXXXXXXXXXa",
"aXXXXXXOXXXO.rbbbbbbbh>.XXOXXXX.ebbbbbbbkzbbvbrXX$be.OXXXXXXXXXa",
"aXXXXXXXXXXXX.dbbbbbbbby*..XXXX.ebvbbbby@fbbbbr @kf.XXXXXXXXXX.a",
"sXOXXXXXXXXXXX+jbbbbbbbbbi3$X.X wbbbvi:XXhbbbbrojk+XOXXXXXXXXXXd",
"s.XXXXXXXXXXXOX$jbbbbbbbbbbxfr8,tdr5&X.XX-,>,>>jl#XXXXXXXXXXXXXd",
"sXXXXXXXXXXXXXXX#fbbbbbbbbbbbbbbi.X.XXXXXX.. :xg@.XXXXXXXXXXXOXd",
"sXXXOXXXXOXXXXXX.otbbbbbbbbbbbvbu.OXXXXXXX.#ubyXXXXXXXOXOXXXXXXs",
"sXXXXXOXXXXXXXXXXXX2kbbbbbbbbbbbt.XoXXX..@0cz<XXXXXXXXXXXXXXXXXs",
"dXXXXXXXXXXXXXXXXXXX+0xbbbbbbbbbr.X...X;yvvwO.OXXXXXXXXXXXXXXXXs",
"sXXXXXXXXXXXXXXXXXXOX.#9hbbbbbbbq.@-4ulbk9@.XOXXXXXXXXXXXXXXXXXs",
"s.XXXXXXXOXXXXXXXXXXXXXXX-9ikvbbzhzxzdq-X.XXXXXXXXXXXXXXXXXXXXXs",
"sXXXXXXXXXXXXXXXXXXXXXXXXX..o%=;:>-%o..XXXXXXXXXXXXXXXXXOXXXXX.s",
"aXXXXXXXXXXOXXXXXXXXXXXXXXXXXX.X..XXXXXXXXXXXXXOXXXXXXXXXXXXXXXd",
"aXOXXXXXXXXXXXXXXXXXXXXXXXXXXXXXXXXOXXXXXXXXXXXXXXXXXXXXXXXXOXXd",
"aXOXXXXXXXXXXXXXXXXXXXXXXXXXXXXXXXXXXXXXXXXXXXXXXXXXXXXXXXXXXXXs",
"aXXXXXXXXXXXXXXXXXXXXXXXXXXXXXXXXXXXXXXXXXXXXXXXXXXXXXXXXXXXXXXs",
"s.XXXXXXXXXXOXXXXXXXXXXXOXXXXXXXXXXXXXXXXXXXXXXXXXXXXXXXXXXXXXXs",
"z@.XXXXXXXXXXXXXXXXXXXXXXXXXXXXXXXXXXXXXXXXXXXXXXXXXXXXXXXXXX.+z",
"ba-#@@@@@@@@@@@@@@@@@@@@@@@@@@@@@@@@@@@@@@@@@@@@@@@@@@@@@@@@#-sb",
"bbbxxxcxxxxxxxxxxxxxxxcxxxxxxxcxxxxxcxxxxxxxxxxxxxxxxxxxxxxxxbbb"
};
