/* XPM */
static char *b5a1a7a1d4fb4cf2a00cee23036f3af38xEr8CPOvgSiv328[] = {
/* columns rows colors chars-per-pixel */
"29 29 71 1 ",
"  c #0079DF",
". c #007FE1",
"X c #0086E2",
"o c #018CE4",
"O c #088EE4",
"+ c #0690E5",
"@ c #0B91E5",
"# c #1495E6",
"$ c #1B95E6",
"% c #1D9AE7",
"& c #2299E7",
"* c #249DE8",
"= c #2A9DE8",
"- c #2EA2E9",
"; c #34A3E9",
": c #3BA6EA",
"> c #44ABEB",
", c #4BAEEC",
"< c #53B1ED",
"1 c #5CB5ED",
"2 c #62B6EE",
"3 c #64B9EE",
"4 c #6ABCEF",
"5 c #71BFF0",
"6 c #75C1F1",
"7 c #7DC4F1",
"8 c #84C7F2",
"9 c #86C9F2",
"0 c #8CCCF3",
"q c #94CEF3",
"w c #99D0F4",
"e c #9AD2F4",
"r c #9ED3F5",
"t c #A3D5F5",
"y c #A5D8F5",
"u c #AAD8F6",
"i c #ACDAF6",
"p c #AEDBF6",
"a c #B1DCF7",
"s c #B5DEF7",
"d c #B8DFF7",
"f c #B7E0F7",
"g c #BAE0F8",
"h c #BDE2F8",
"j c #C1E3F8",
"k c #C3E4F9",
"l c #C4E5F9",
"z c #C5E5F9",
"x c #C7E6F9",
"c c #C9E7FA",
"v c #CFE9FA",
"b c #D0EAFA",
"n c #D4EBFA",
"m c #D4ECFA",
"M c #D7EDFB",
"N c #D8EDFB",
"B c #DCF0FB",
"V c #DFF1FC",
"C c #E0F1FC",
"Z c #E5F4FC",
"A c #E6F4FC",
"S c #E9F5FD",
"D c #EEF8FD",
"F c #EFF8FD",
"G c #F2F9FE",
"H c #F6FBFE",
"J c #F7FBFE",
"K c #F6FCFE",
"L c #FAFDFE",
"P c #FEFEFF",
"I c #FEFFFF",
/* pixels */
"a;;=------------=--=-------;a",
",XoooooXXooooXoooooooooooXXX,",
",oOoo+o+o++oooXXooOOooO++oOo,",
",ooo+oooooXo#;>,;#XoooooooOX,",
",Xooo+o+XO3hDPM17e0:Xo+ooooo,",
",X+ooooX,nPPPPx  o:q0@ooo+oo,",
",Xo++oo4PPPPvq9q6;X ,y&X+ooX,",
",ooo+X3PLPd>OX;PPPx:X=t#oo+o,",
",o+oo-LLP0XXXo,PPPPS#X:0XOoo,",
",oooXgPPeXo#0Ms;4MP,X+X6>ooX,",
",Xoo;PPBOo#vPPfXX#,oooo%0ooo,",
",o@X9PL6XopPKPjXOoo+oo+o8%oX,",
",XoohPL*X-PLPPhX+ooooooX4,Xo,",
",X+oMPB@X3PPPPjo+###ooOX<1Xo,",
",oo+BPboX5PLPPjoocGDk@oo,3XX,",
",oooMPB@X>PLPPjX+APPL%oX<1Xo,",
",X@oaPK*oONPJPkoO>dPJ%oX6>Xo,",
",ooX6PP4Xo;SPPkoO 5PG%oo0#oo,",
",ooo*LPVOoo&rFkXo<ZPJ*X;9X+X,",
",Xo+XePPioooX$3ucPLPJ*Xq-ooo,",
",o+oo#APPf*XXX>PPPZPPO16oooX,",
",oo+oo:KPPGe,$<Dk<,nd5qooo+o,",
",Xooo+X:APPPPDg$oXXO6qoo+ooX,",
",o+ooo+X%tPPPPk.o$2t2ooooo+X,",
",Xooo+o+oo-8xZk4883#X+o+oo+o,",
",X+oooo+oooXo@%*#oXo+oooo+oX,",
",o+ooO+oooOOoooooOoOoo+ooo+o,",
"< ooXXoXooXXoXXXXXoXXXoXoXXX<",
"M544444444444443444444444445N"
};
