/* XPM */
static char *_651b787a24e45adcc94f81313610171cCKqXNaCNr6aymfa[] = {
/* columns rows colors chars-per-pixel */
"16 16 73 1 ",
"  c #007FE1",
". c #0081E1",
"X c #0086E2",
"o c #0088E3",
"O c #0288E3",
"+ c #028BE3",
"@ c #008BE4",
"# c #008CE4",
"$ c #048EE4",
"% c #078EE4",
"& c #0490E4",
"* c #0791E5",
"= c #0C90E5",
"- c #1295E6",
"; c #1797E6",
": c #1894E6",
"> c #1998E7",
", c #1F9BE7",
"< c #209BE7",
"1 c #269AE7",
"2 c #239DE8",
"3 c #259EE8",
"4 c #269EE8",
"5 c #289FE8",
"6 c #2C9DE8",
"7 c #2AA0E8",
"8 c #32A3E9",
"9 c #34A4EA",
"0 c #36A5EA",
"q c #37A6EA",
"w c #38A6EA",
"e c #3EA7EA",
"r c #44ACEB",
"t c #47ACEB",
"y c #48ABEB",
"u c #49AEEC",
"i c #4EB0EC",
"p c #50B0EC",
"a c #52B0EC",
"s c #57B4ED",
"d c #5AB6EE",
"f c #5EB7EE",
"g c #65BAEF",
"h c #69BBEF",
"j c #68BCEF",
"k c #73C1F0",
"l c #78C2F1",
"z c #7CC5F1",
"x c #81C7F2",
"c c #85C7F2",
"v c #87C9F2",
"b c #8FCDF3",
"n c #95CFF4",
"m c #98D1F4",
"M c #9AD1F4",
"N c #9CD3F5",
"B c #A3D6F5",
"V c #A4D6F5",
"C c #ABD9F6",
"Z c #ABDAF6",
"A c #B6DEF7",
"S c #B9E0F8",
"D c #C0E2F8",
"F c #C7E6F9",
"G c #CCE8FA",
"H c #DCEFFB",
"J c #DBF0FB",
"K c #DEF0FB",
"L c #E8F5FD",
"P c #EBF5FD",
"I c #EBF6FD",
"U c #EFF8FD",
"Y c #FCFEFF",
/* pixels */
"i:>>>>>;-;>>>>:i",
",o#@#XX#-*Xo##o<",
"7o##opSUpys:o*o7",
"2o%%VYUCky1f7oo4",
"7#XNYxXoIYD&d>o3",
"7XwYn cI9hzo;pX7",
"7.mY%dYY3 .oou*2",
"4XFJ.AYY36i2Xr;,",
"5XDL.CYY<xYm.t;,",
"5.bY=6UY<.IC.d$<",
"5X7YM.:zgmYm-pX6",
"3oXvYV<XIJGCi-X3",
"3o&ovYYItXrl>o+7",
"7o&+X9mGspt$+&+7",
"2X+ooX.oooooooX>",
"j9w89ww9999w999h"
};
