/* XPM */
static char *result[] = {
/* columns rows colors chars-per-pixel */
"128 128 52 1 ",
"  c #0084E2",
". c #008DE4",
"X c #098FE5",
"o c #0690E5",
"O c #0D93E5",
"+ c #1295E6",
"@ c #1997E6",
"# c #1C99E7",
"$ c #219CE7",
"% c #259DE8",
"& c #299EE8",
"* c #2DA1E9",
"= c #33A4E9",
"- c #3AA7EA",
"; c #3DA9EA",
": c #43ABEB",
"> c #4AAEEC",
", c #4EB0EC",
"< c #53B2ED",
"1 c #5BB6ED",
"2 c #63B9EF",
"3 c #6ABDEF",
"4 c #70BFEF",
"5 c #6DBEF0",
"6 c #70BFF0",
"7 c #73C0EF",
"8 c #74C1F0",
"9 c #7CC4F1",
"0 c #81C7F2",
"q c #85C8F2",
"w c #8BCBF3",
"e c #93CEF4",
"r c #96D0F4",
"t c #9AD2F4",
"y c #A3D6F5",
"u c #A7D8F5",
"i c #ACDAF6",
"p c #B3DDF7",
"a c #B8DFF7",
"s c #BAE0F7",
"d c #BCE1F8",
"f c #C4E5F9",
"g c #C9E7F9",
"h c #CDE9FA",
"j c #D4ECFA",
"k c #DAEEFB",
"l c #DEF0FB",
"z c #E4F3FC",
"x c #EBF6FD",
"c c #EFF8FD",
"v c #F2F9FE",
"b c #FFFFFF",
/* pixels */
"bbbbbbvccvvcvvvvvvvvccccvvcvcvvvvvvvvvcvvcvvvvvvvvvvcvcccccvcvvcvvvvvvvvvccvcvvvvvvcvccccccccccvcvcccvvvvvvcvcvccccvcccvcvbbbbbb",
"bbbx9=++++++++++O++O++++++++++++++O+O+++++++++O+O++O+++++++++++++++O++O+++++++++++++++++@++++++++++++++++++++++++++++++++@=9xbbb",
"bbk&  ........ .... ........ ........... ....... . . .............. ..... .. ..................... . ................ ....  &kbb",
"bv= o..................o........................oooo..............................................o.......................oo =vb",
"ba........................................................................................................................... sb",
"bq o........................................................................................................................o qb",
"b0 o........................................................................................................o...............o 0b",
"b0 o....o......o....................................................................o.......................................o 0b",
"b0 .....o..................................o.............o..................................................................o 0b",
"b0 o................................................o.......................................................................o 0b",
"b0 .............o....................................................................................o.......o.....o........o 0b",
"bq o.............................o....o........o.........o.......................o.....o.................o..................o 0b",
"b0 o...................................................o.................o...................................o..............o 0b",
"b0 ................................................o...................................................................o..... 0b",
"b0 o...........o...........................................o.oo..oo.o.o...........................................o.......... 0b",
"b0 ......o..........................o......o.........o..... .  .   .. ......o.............................................. X 0b",
"b0 o.....................o............................ ..#=:<23344321<:=#.  ................................................o 0b",
"b0 .............o..............o.......o.......o....O*10pjxvbbbbbbbbbbvzji01&O. .o...................o.......o.............oo 0b",
"b0 Xo........o...................o.............. +:qaxbbbbbbbbbvvfsjzbbbbbbbxaq;+. ..............o...............o...o......o 0b",
"b0 o.......................................o. X-whvbbbbbbbbbbbbbx*X#&>3qpkvbbbbvgq-o.....................o..................o 0b",
"b0 ...........................o............ o<ivbbbbbbbbbbbbbbbbc; .  ..o#:9izbbbbci<o .....................................o 0b",
"b0 o.....o.............o..o...............X1dbbbbbbbbbbbbbbbbbbbv:.oo..... ..&1izbbbba<X.............................o....... 0b",
"b0 ..o.......o...............o...........;abbbbbbbbbbbbbbbbbbbbbv:.........o...o&9gbbbbp; ..................................o 0b",
"bq o.............o..................o. #rvbbbbbbbbbbbbbbbbbbbbbbv:............... +<pbbbve@...........o.......o............ o 0b",
"b0 o....................o....o........<jbbbbbbbbbbbbbbbbbbbbbbbbv> o............... X<abbbj<................................o 0b",
"b0 ..........o......................@ybbbbbbbbbbbbbbbbbbbbbbbbbbb,.................o...1hbbbr@...o.........o................o 0b",
"b0 o.........................o.....*gbbbbbbbbbbbbbbbbbbbbbbbbbbbv> .................... @evbbf* ............................o 0b",
"b0 ..................o.....o..... >zbbbbbbbbbbbbbbbbbbbbbbbbbbbbb<... . ...............o. >hbbl>............................o 0b",
"b0 ..............o...............1vbbbbbbbbbbbbbbbbbbbbbbbbcjgieqfautq3>=#. ...o...........#ybbc1...........................o 0b",
"b0 o......o..o.......o..........9bbbbbbbbbbbbbbbbbbbbbbzfq1*@.. ogbbbbbbvju7:+  .............7vbb7......o...................o 0b",
"b0 o.........................o.9bbbbbbbbbbbbbbbbbbbbci3*+. .....+gbvbbbbbbbbvjq;o...o........ 1xbb7.o.......................o 0b",
"b0 o........................o 7bbbbbbbbbbbbbbbbbbbkq=. .........+gbbbbbbbvbbbbbvp<............ :zbb7.o......................  0b",
"b0 ....o.......o.........o.o.<vbbbbbbbbbbbbbbbbbk9%. ..o........+gbbbbbbbbbbbbbbbba;..o.........:zbv,..................o....o 0b",
"b0 o...............o........-xbbbbbbbbbbbbbbbbvw$...............+gbbbbbbbbbbbbbbbbbcq+.........o ;cbx- .....................o.0b",
"b0 ........................$kbbbbbbbbbbbbbbbbf:.................+gbbbbbbbbbbbbbbbbbbbg; ..........<cbj$...................... 0b",
"bq o......................Xabbbbbbbbbbbbbbbbe+..................Ogbbbbbbbbbbbbbbbbbbbbx<...........4bbp.....................X 0b",
"b0 o......................0bbbbbbbbbbbbbbbz1 ...................+gbbbbbbbbbbbbbbbbbbbbbc7...........ebb9 .................... 0b",
"b0 ..................... =cbbbbbbbbbbbbbbz; ....................+gbbbbbbbbbbbbbbbbbbbbbbr...........+gbc*...................X 0b",
"b0 o....................Odbbbbbbbbbbbbbbk=.................... ..fbbbbbbbbbbbbbbbbbbbbbaO......o.... ;vbaX................... 0b",
"b0 .....o......o....... 3bbbbbbbbbbbbbbl*.o.................#&==:kbbbbbbbbbbbbbbbbbbbbk$............. 0bb2..................X 0b",
"b0 ...........o........#kbbbbbbbbbbbbbz; ...............O>9pjzxcx2,4wygcbbbbbbbbbbbbbc:.o.............Ogbj@.................. qb",
"b0 X...o...............wbbbbbbbbbbbbbv< o......o..... #5fvbbbbbbz$ ...+=7fbbbbbbbbbbb2 ..............o.<bbq...................0b",
"b0 o................o.&xbbbbbbbbbbbbb9 X............o8kbbbbbbbbbx=.... ...:ivbbbbbbbr..................oabz&................. 0b",
"b0 o..................qbbbbbbbbbbbbbaO.............*abbbbbbbbbbbx=........ X:fbbbbbg@.o.................>vb0................X 0b",
"b0 X.................#zbbbbbbbbbbbbz&............ <zbbbbbbbbbbbbc* X........ O6vbbx*.....................abk@................ 0b",
"b0 X.................8bbbbbbbbbbbbb9...........o.2vbbbbbbbbbbbbbc=.............:jb1.......o..o...........<bb4...............X 0b",
"b0 ............o....Ogbbbbbbbbbbbbg+............2bbbbbbbbbbbbbbbx*..............&3.......................+hbfO............... 0b",
"bq ......o......... :bbbbbbbbbbbbb1............<vbbbbbbbbbbbbbbbc=............... ....................... 7bv; .............X 0b",
"b0 o................qbbbbbbbbbbbbfX...........#zbbbbbbbbbbbbbbbbx= .............o.........................=cbq .............o 0b",
"b0 ................+fbbbbbbbbbbbb2...........Xubbbbbbbbbbbbbbbbbc=..................o..............oo......sbdO.............o.0b",
"b0 o...............:cbbbbbbbbbbbh+.......... 2bbbbbbbbbbbbbbbbbbx=.........................o...............7bc-.............. 0b",
"b0 ......o....o..o.6bbbbbbbbbbbb0 ..........+kbbbbbbbbbbbbbbbbbbv- X..........................o..o....o..X =vb7 ............X 0b",
"b0 o...............pbbbbbbbbbbbv=.o.........2bbbbbbbbbbbbbbbbbbbx-.........oo.............o................@hbi.............. 0b",
"b0 o..............+hbbbbbbbbbbbf+..........+gbbbbbbbbbbbbbbbbbbbc-.o........................................rbh+............X 0b",
"b0 .o............ =xbbbbbbbbbbbw ......... >bbbbbbbbbbbbbbbbbbbbc-...............o......................... 7bx=.o........... 0b",
"b0 o........o.....2bbbbbbbbbbbb1...........ybbbbbbbbbbbbbbbbbbbbc- ...................o.........o.........o >bb1............X 0b",
"b0 .o.......o.....qbbbbbbbbbbbk%..........+jbbbbbbbbbbbbbbbbbbbbc; ...................................o.....*zb9............. qb",
"b0 o..............ybbbbbbbbbbbgX........o.;vbbbbbbbbbbbbbbbbbbbbc;...................o......................@jbt..............0b",
"b0 ...............abbbbbbbbbbby.......... 1bbbbbbbbbbbbbbbbbbbbbc:...........................o..............+hbp............. 0b",
"bq o..............gbbbbbbbbbbb0...........qbbbbbbbbbbbbbbbbbbbbbc;.o.......o.o.o.o...o...o...................sbf............X 0b",
"b0 o....o........Xkbbbbbbbbbbb3..........oybbbbbbbbbbbbbbbbbbbbbc: ........... . . . . .. oo.................ubj............. 0b",
"b0 ..............Xkbbbbbbbbbbb1 .......o.oabbbbbbbbbbbbbbbbbbbbbc:.........=8221111<<,><,*...................rbkO...........X 0b",
"b0 X.............Xkbbbbbbbbbbb> .........+abbbbbbbbbbbbbbbbbbbbbv:........ 8bbbbbbbvvvvvvzi*...........o.....wbko............ 0b",
"b0 .........o....Xzbbbbbbbbbbb>.o........Osbbbbbbbbbbbbbbbbbbbbbv: X.......2bbbbbbbbbbbbbbbk#...o........... eblo...........X 0b",
"b0 o.............okbbbbbbbbbbb:.o........Xpbbbbbbbbbbbbbbbbbbbbbv:.........3bbbbbbbbbbbbbbbbq ...............ebko...........o 0b",
"b0 ..............okbbbbbbbbbbb>...........tbbbbbbbbbbbbbbbbbbbbbv:.X...... 3bbbbbbbbbbbbbbbbf+.........o.....tbko...........o 0b",
"b0 X.o...........Xkbbbbbbbbbbb> ..o.......8bbbbbbbbbbbbbbbbbbbbbv: ........5bbbbbbbbbbbbbbbbh+...............ibh....o......o. 0b",
"b0 o.........o...Xgbbbbbbbbbbb2 o........ >vbbbbbbbbbbbbbbbbbbbbv:.o.....o.6bbbbbbbbbbbbbbbbh+..............Xfbf............o 0b",
"b0 X.....o........abbbbbbbbbbb6...........%kbbbbbbbbbbbbbbbbbbbbb:.........6bbbbbbbbbbbbbbbbg+..............+hbp.....o....... qb",
"b0 X.o......o.....ybbbbbbbbbbbw............abbbbbbbbbbbbbbbbbbbbv>.......X 6bbbbbbbbbbbbbbbbj+..............#kbt............o 0b",
"b0 .............. 0bbbbbbbbbbbs........... 3bbbbbbbbbbbbbbbbbbbbv>........ 0bbbbbbbbbbbbbbbbj@..............*cb9............. 0b",
"bq .............X.1bbbbbbbbbbbk#.o.........#kbbbbbbbbbbbbbbbbbbbv> X.....o.4xzkzbbbbbbbbbbbbj+.......o..... <bb1 ...........X 0b",
"b0 o..............=cbbbbbbbbbbv:............3bbbbbbbbbbbbbbbbbbbb> ...o....o*&$&4vbbbbbbbbbbj#..........o...0bz*...o......o.o 0b",
"b0 ...............+jbbbbbbbbbbb9............+jbbbbbbbbbbbbbbbbbbv>.............. qbbbbbbbbvbk#..o..........Xybh+............o 0b",
"b0 o........o......ibbbbbbbbbbbp............ ,bbbbbbbbbbbbbbbbbbb>..........X....2bbbbbbbbbbk#.............#jbu.............. 0b",
"b0 ............... 7bbbbbbbbbbbx&.X...........wbbbbbbbbbbbbbbbbbb>.o.............3bbbbbbbbbbk$............ :bb3........o....X 0b",
"b0 o.......o...... :vbbbbbbbbbbb7 ............Xpbbbbbbbbbbbbbbbbv,...............7vbbbbbbbbbk% ..........o.qbx;.............. qb",
"b0 o...............+fbbbbbbbbbbbh+.............@ibbbbbbbbbbbbbbbb,.............. 7bbbbbbbbbbk%.o..........XgbdO.............o 0b",
"b0 .o...............qbbbbbbbbbbbb1..............Oybbbbbbbbbbbbbbb< ....o.......o.2bbbbbbbbbbk%.........o..:vb0............... 0b",
"b0 o................:vbbbbbbbbbbbgo..............X0vbbbbbbbbbbbbv<.............. wbbbbbbbbbbz* X.o........qbv; .............o 0b",
"b0 .o.......o.......Ogbbbbbbbbbbbb1 ...............>hbbbbbbbbbbbb<...........X Owbbbbbbbbbbbl&...........#kbfO..............o 0b",
"b0 o..............o..8bbbbbbbbbbbbk#................+9jbbbbbbbbbv< ...........;gbbbbbbbbbbbbz&.......... 3bb3...............o 0b",
"b0 ..................#zbbbbbbbbbbbbr...............o. #4fbbbbbbbb1 .....X...@qcbbbbbbbbbbbbbz* .........ogbk#.....o...o..o... 0b",
"bq o................. 0bbbbbbbbbbbbb<.o.................O:qgxbbbb<..o... .$9kbbbbbbbbbbbbbbbx&..........1bb0 ...............o 0b",
"b0 o....o......o....X.&xbbbbbbbbbbbbk% X...............o. .+*2rdl< . ..#:rzbbbbbbbbbbbbbbbbbx=.........+gbz$................. qb",
"b0 ................... qbbbbbbbbbbbbbg+.o.......o...............;gperydkbbbbbbbbbbbbbbbbbbbbx=........ 2bb0.......o.........o 0b",
"b0 X...................#kbbbbbbbbbbbbbiO....................... $cbbbbbbbbbbbbbbbbbbbbbbbbbbx=........+kbk@.................. 0b",
"b0 .....................2bbbbbbbbbbbbbbp+.o...................X.*zbbbbvbbbbbbbbbbbbbbbbbbbbbx=........rbb1 .................X 0b",
"b0 X.......o............osbbbbbbbbbbbbbba$......................*zbbbbbbbbbbbbbbbbbbbbbbbbbbx-...o.. <bbaX..................o 0b",
"b0 o.....................*cbbbbbbbbbbbbbbj- ...........o....... *zbbbbbbbbbbbbbbbbbbbbbbbbbbx- .....#kbz&..........o.......oo 0b",
"b0 o....................X 9bbbbbbbbbbbbbbbz2..X.................*zbbbbbbbbbbbbbbbbbbbbbbbbbbc;.....Xibb9..................... 0b",
"b0 o.............o....o...Xibbbbbbbbbbbbbbbbp= ...............X.*zbbbbbbbbbbbbbbb9ybbbbbbbbbx; ....9bbi.....................o 0b",
"b0 X.....o....o..........o.#jbbbbbbbbbbbbbbbbzq$............... *cbbbbbbbbbbbbbk<.ybbbbbbbbbz;..o 2vbj#.o.................... qb",
"b0 ....o....................-xbbbbbbbbbbbbbbbbbk9$ ......o......*zbbbbbbbbbbbvr#..ybbbbbbbbbx;.X.,vbz= ................o....o 0b",
"b0 X.........................,vbbbbbbbbbbbbbbbbbbzr:+ .....o....=xbbbbbbbbbci: ...rbbbbbbbbbx:. :zbv>..............o......... 0b",
"b0 .........................o 3bbbbbbbbbbbbbbbbbbbbvf9:# . .....*xbbbbbbbke;......tbbbbbbbbbb> >cbb3 o.......o..............X 0b",
"b0 o......................o....9bbbbbbbbbbbbbbbbbbbbbbvjy9>&#O. @cbbvzhe1#...o....:0990q0qqww+1cbb4........................oo 0b",
"b0 .................o...........8bbbbbbbbbbbbbbbbbbbbbbbbbbzjdy0eaq6<*+. ..o........ . . ..  4vbb4...........o....o...........0b",
"b0 o............o................1xbbbbbbbbbbbbbbbbbbbbbbbbbbbbbb< ..................o...X.@ubbx<...........................X 0b",
"b0 ......o....o.................. >zbbbbbbbbbbbbbbbbbbbbbbbbbbbbv1........................:hbbk: ............................ 0b",
"b0 o...............................*gbbbbbbbbbbbbbbbbbbbbbbbbbbbb1 .o......o........... +qcbbd*.............................o 0b",
"b0 o................o.............. +ebbbbbbbbbbbbbbbbbbbbbbbbbbv, ....................>fbbbe@............o...o.............X 0b",
"b0 ..o................................<jbbbbbbbbbbbbbbbbbbbbbbbbv,.o.................:ibbbh<................................. 0b",
"b0 o........o..........................#wvbbbbbbbbbbbbbbbbbbbbbbv: ................:yvbbxw@ ................................o 0b",
"b0 .o.......o............................-ibbbbbbbbbbbbbbbbbbbbbv; o.......... .@2pvbbvi-...................................o 0b",
"b0 o...............................o...o..X<abbbbbbbbbbbbbbbbbbbc-...o...... +;wjbbbba<.....................................o 0b",
"b0 ........................................ .,uvbbbbbbbbbbbbbbbbc-.o.. ..o$<wgbbbbxy,o .o.........o.......o...o....o........X 0b",
"bq o....o............o.........................-0gvbbbbbbbbbbbbbl# o+#-29szvbbbcf0=...................o...................... 0b",
"b0 o.............o...........................o...O;9szbbbbbbbbbbc9qpgkvbbbbbzp9:X.................o.........................o qb",
"b0 ..................o............................ .o*<9ihzcbbbbbbbbbbvzhu7<&O ...........................o............o..... 0b",
"b0 X.................................................. .X+=:>13333711,:*@o.  .............o.......................o.......... 0b",
"b0 .........o.......................................X..... .   .     .  ...o.o..............................................o 0b",
"b0 o....o........................................o.......o.o.o.Xooo.oo..o...................................................o 0b",
"b0 o....................o..o...o..............o........o......................o...............o......................o....o.o 0b",
"b0 o..............o...o.............o...............................................o...........................o...........X 0b",
"b0 o........................o................................................................................................ 0b",
"b0 X......................................................................................................o.................X 0b",
"b0 ...............o.................................................................................................o.......X 0b",
"b0 X...........................o.......................................o.........................o........................... 0b",
"b0 ....o.................o..............................o........o...........o..............................................o 0b",
"b0 o.........................o...........................................o..................................................o 0b",
"bw ...........................................................................o......................o......................o qb",
"ba.X..........................................................................................................................ab",
"bv= oo....................................................................................................................oo =vb",
"bbj& ....... ........... .................. ....................... ....................... ....................... ....... &kbb",
"bbbz9*+OOOOOOOOOOO+XOOOOOOOO+OOOOOX+OOOOOOOOOOX+OOOOOOOOOOX+OOOOOOOOOOX+XOOOOOOOOOX+OOOOOOOOOOX+OOOO+OOOOOX+OOOOOOOOOOX+X+&7cbbb",
"bbbbbbccvvvvvvcvvccvvvvvvvvvvccvcvvccvvvvvvvcvvccvvvvvvvcvvccvvvvvvvcvvcvvvvvvvccvvccvvvvvvvcvvccvvvvvvvcvvccvvvvvvvvvvcvvbbbbbb",
"bbbbbbbbbbbbbbbbbbbbbbbbbbbbbbbbbbbbbbbbbbbbbbbbbbbbbbbbbbbbbbbbbbbbbbbbbbbbbbbbbbbbbbbbbbbbbbbbbbbbbbbbbbbbbbbbbbbbbbbbbbbbbbbb"
};
